<?xml version="1.0" encoding="UTF-8" standalone="no"?>
<!DOCTYPE svg PUBLIC "-//W3C//DTD SVG 1.1//EN"
 "http://www.w3.org/Graphics/SVG/1.1/DTD/svg11.dtd">
<!-- Generated by graphviz version 2.38.0 (20140413.2041)
 -->
<!-- Title: life Pages: 1 -->
<svg width="426pt" height="78pt"
 viewBox="0.00 0.00 426.00 78.00" xmlns="http://www.w3.org/2000/svg" xmlns:xlink="http://www.w3.org/1999/xlink">
<g id="graph0" class="graph" transform="scale(1 1) rotate(0) translate(4 74)">
<title>life</title>
<polygon fill="white" stroke="none" points="-4,4 -4,-74 422,-74 422,4 -4,4"/>
<!-- struct1 -->
<g id="node1" class="node"><title>struct1</title>
<polygon fill="none" stroke="black" points="0,-0.5 0,-36.5 418,-36.5 418,-0.5 0,-0.5"/>
<text text-anchor="middle" x="37" y="-14.8" font-family="Times,serif" font-size="14.00">起始位置</text>
<polyline fill="none" stroke="black" points="74,-0.5 74,-36.5 "/>
<text text-anchor="middle" x="111" y="-14.8" font-family="Times,serif" font-size="14.00">下一位置</text>
<polyline fill="none" stroke="black" points="148,-0.5 148,-36.5 "/>
<text text-anchor="middle" x="162" y="-14.8" font-family="Times,serif" font-size="14.00">...</text>
<polyline fill="none" stroke="black" points="176,-0.5 176,-36.5 "/>
<text text-anchor="middle" x="211" y="-14.8" font-family="Times,serif" font-size="14.00">第K位置</text>
<polyline fill="none" stroke="black" points="246,-0.5 246,-36.5 "/>
<text text-anchor="middle" x="260" y="-14.8" font-family="Times,serif" font-size="14.00">...</text>
<polyline fill="none" stroke="black" points="274,-0.5 274,-36.5 "/>
<text text-anchor="middle" x="309" y="-14.8" font-family="Times,serif" font-size="14.00">第N位置</text>
<polyline fill="none" stroke="black" points="344,-0.5 344,-36.5 "/>
<text text-anchor="middle" x="381" y="-14.8" font-family="Times,serif" font-size="14.00">结束位置</text>
</g>
<!-- struct1&#45;&gt;struct1 -->
<g id="edge1" class="edge"><title>struct1:f0&#45;&gt;struct1:f1</title>
<path fill="none" stroke="black" d="M207.628,-36.5287C211.208,-46.1943 225.109,-55 260,-55 284.532,-55 298.688,-50.6466 306.176,-44.7019"/>
<polygon fill="black" stroke="black" points="309.12,-46.612 312.372,-36.5287 303.542,-42.3829 309.12,-46.612"/>
<text text-anchor="middle" x="209" y="-58.8" font-family="Times,serif" font-size="14.00"> 交换 </text>
</g>
<!-- struct1&#45;&gt;struct1 -->
<g id="edge2" class="edge"><title>struct1:f1&#45;&gt;struct1:f0</title>
<path fill="none" stroke="black" d="M312.372,-36.5287C308.792,-46.1943 294.891,-55 260,-55 235.468,-55 221.312,-50.6466 213.824,-44.7019"/>
<polygon fill="black" stroke="black" points="216.458,-42.3829 207.628,-36.5287 210.88,-46.612 216.458,-42.3829"/>
</g>
</g>
</svg>
