<?xml version="1.0" encoding="UTF-8" standalone="no"?>
<!DOCTYPE svg PUBLIC "-//W3C//DTD SVG 1.1//EN"
 "http://www.w3.org/Graphics/SVG/1.1/DTD/svg11.dtd">
<!-- Generated by graphviz version 2.38.0 (20140413.2041)
 -->
<!-- Title: life Pages: 1 -->
<svg width="508pt" height="205pt"
 viewBox="0.00 0.00 507.50 204.50" xmlns="http://www.w3.org/2000/svg" xmlns:xlink="http://www.w3.org/1999/xlink">
<g id="graph0" class="graph" transform="scale(1 1) rotate(0) translate(69.5 200.5)">
<title>life</title>
<polygon fill="white" stroke="none" points="-69.5,4 -69.5,-200.5 438,-200.5 438,4 -69.5,4"/>
<!-- struct1 -->
<g id="node1" class="node"><title>struct1</title>
<polygon fill="none" stroke="black" points="-0.5,-145 -0.5,-181 434.5,-181 434.5,-145 -0.5,-145"/>
<text text-anchor="middle" x="36.5" y="-159.3" font-family="Times,serif" font-size="14.00">起始位置</text>
<polyline fill="none" stroke="black" points="73.5,-145 73.5,-181 "/>
<text text-anchor="middle" x="110.5" y="-159.3" font-family="Times,serif" font-size="14.00">下一位置</text>
<polyline fill="none" stroke="black" points="147.5,-145 147.5,-181 "/>
<text text-anchor="middle" x="161.5" y="-159.3" font-family="Times,serif" font-size="14.00">...</text>
<polyline fill="none" stroke="black" points="175.5,-145 175.5,-181 "/>
<text text-anchor="middle" x="210.5" y="-159.3" font-family="Times,serif" font-size="14.00">第K位置</text>
<polyline fill="none" stroke="black" points="245.5,-145 245.5,-181 "/>
<text text-anchor="middle" x="259.5" y="-159.3" font-family="Times,serif" font-size="14.00">...</text>
<polyline fill="none" stroke="black" points="273.5,-145 273.5,-181 "/>
<text text-anchor="middle" x="317" y="-159.3" font-family="Times,serif" font-size="14.00">第K+L位置</text>
<polyline fill="none" stroke="black" points="360.5,-145 360.5,-181 "/>
<text text-anchor="middle" x="397.5" y="-159.3" font-family="Times,serif" font-size="14.00">结束位置</text>
<text text-anchor="middle" x="-26" y="-185.3" font-family="Times,serif" font-size="14.00"> 交叉源 </text>
</g>
<!-- struct3 -->
<g id="node2" class="node"><title>struct3</title>
<polygon fill="none" stroke="black" points="196.5,-73 196.5,-109 381.5,-109 381.5,-73 196.5,-73"/>
<text text-anchor="middle" x="231.5" y="-87.3" font-family="Times,serif" font-size="14.00">第K位置</text>
<polyline fill="none" stroke="black" points="266.5,-73 266.5,-109 "/>
<text text-anchor="middle" x="280.5" y="-87.3" font-family="Times,serif" font-size="14.00">...</text>
<polyline fill="none" stroke="black" points="294.5,-73 294.5,-109 "/>
<text text-anchor="middle" x="338" y="-87.3" font-family="Times,serif" font-size="14.00">第K+L位置</text>
</g>
<!-- struct1&#45;&gt;struct3 -->
<g id="edge1" class="edge"><title>struct1:f0&#45;&gt;struct3:f0</title>
<path fill="none" stroke="black" d="M210,-145C210,-145 219.701,-128.369 225.916,-117.715"/>
<polygon fill="black" stroke="black" points="228.984,-119.401 231,-109 222.938,-115.874 228.984,-119.401"/>
<text text-anchor="middle" x="185.458" y="-120.157" font-family="Times,serif" font-size="14.00"> 取出序列 </text>
</g>
<!-- struct2 -->
<g id="node3" class="node"><title>struct2</title>
<polygon fill="none" stroke="black" points="-0.5,-1 -0.5,-37 434.5,-37 434.5,-1 -0.5,-1"/>
<text text-anchor="middle" x="36.5" y="-15.3" font-family="Times,serif" font-size="14.00">起始位置</text>
<polyline fill="none" stroke="black" points="73.5,-1 73.5,-37 "/>
<text text-anchor="middle" x="110.5" y="-15.3" font-family="Times,serif" font-size="14.00">下一位置</text>
<polyline fill="none" stroke="black" points="147.5,-1 147.5,-37 "/>
<text text-anchor="middle" x="161.5" y="-15.3" font-family="Times,serif" font-size="14.00">...</text>
<polyline fill="none" stroke="black" points="175.5,-1 175.5,-37 "/>
<text text-anchor="middle" x="210.5" y="-15.3" font-family="Times,serif" font-size="14.00">第N位置</text>
<polyline fill="none" stroke="black" points="245.5,-1 245.5,-37 "/>
<text text-anchor="middle" x="259.5" y="-15.3" font-family="Times,serif" font-size="14.00">...</text>
<polyline fill="none" stroke="black" points="273.5,-1 273.5,-37 "/>
<text text-anchor="middle" x="317" y="-15.3" font-family="Times,serif" font-size="14.00">第N+L位置</text>
<polyline fill="none" stroke="black" points="360.5,-1 360.5,-37 "/>
<text text-anchor="middle" x="397.5" y="-15.3" font-family="Times,serif" font-size="14.00">结束位置</text>
<text text-anchor="middle" x="-33" y="-41.3" font-family="Times,serif" font-size="14.00"> 交叉对象 </text>
</g>
<!-- struct3&#45;&gt;struct2 -->
<g id="edge2" class="edge"><title>struct3:f0&#45;&gt;struct2:f0</title>
<path fill="none" stroke="black" d="M231,-73C231,-73 221.299,-56.3689 215.084,-45.7146"/>
<polygon fill="black" stroke="black" points="218.062,-43.8742 210,-37 212.016,-47.4014 218.062,-43.8742"/>
<text text-anchor="middle" x="190.542" y="-48.1573" font-family="Times,serif" font-size="14.00"> 插入序列 </text>
</g>
</g>
</svg>
